<?xml version="1.0" encoding="utf-8"?>
<!-- Generator: Adobe Illustrator 22.1.0, SVG Export Plug-In . SVG Version: 6.00 Build 0)  -->
<svg version="1.1" id="Layer_2" xmlns="http://www.w3.org/2000/svg" xmlns:xlink="http://www.w3.org/1999/xlink" x="0px" y="0px"
	 viewBox="0 0 1920 1080" style="enable-background:new 0 0 1920 1080;" xml:space="preserve">
<style type="text/css">
	.st0{fill:none;stroke:url(#SVGID_1_);stroke-width:15;stroke-linecap:round;stroke-miterlimit:10;}
	.st1{fill:none;stroke:url(#SVGID_2_);stroke-width:15;stroke-miterlimit:10;}
	.st2{fill:none;stroke:url(#SVGID_3_);stroke-width:15;stroke-miterlimit:10;}
	.st3{fill:url(#SVGID_4_);}
	.st4{fill:none;stroke:url(#SVGID_5_);stroke-width:15;stroke-linecap:round;stroke-miterlimit:10;}
	.st5{fill:url(#SVGID_6_);stroke:#FFFFFF;stroke-miterlimit:10;}
	.st6{fill:url(#SVGID_7_);}
	.st7{fill:none;stroke:#FFFFFF;stroke-width:8.0612;stroke-miterlimit:10;}
	.st8{fill:none;stroke:url(#SVGID_8_);stroke-width:15;stroke-linecap:round;stroke-miterlimit:10;}
	.st9{fill:none;stroke:url(#SVGID_9_);stroke-width:15;stroke-linecap:round;stroke-miterlimit:10;}
	.st10{fill:none;stroke:url(#SVGID_10_);stroke-width:15;stroke-linecap:round;stroke-miterlimit:10;}
	.st11{fill:url(#SVGID_11_);}
	.st12{fill:none;stroke:#FFFFFF;stroke-width:16;stroke-miterlimit:10;}
	.st13{fill:none;stroke:url(#SVGID_12_);stroke-width:15;stroke-miterlimit:10;}
	.st14{fill:none;stroke:#FFFFFF;stroke-width:15;stroke-linecap:round;stroke-miterlimit:10;}
	.st15{fill:none;stroke:#FFFFFF;stroke-width:15;stroke-miterlimit:10;}
</style>
<linearGradient id="SVGID_1_" gradientUnits="userSpaceOnUse" x1="1447.2572" y1="487.6317" x2="1462.2572" y2="487.6317">
	<stop  offset="0" style="stop-color:#DE6262"/>
	<stop  offset="1" style="stop-color:#FFB88C"/>
</linearGradient>
<line class="st0" x1="1454.8" y1="476.1" x2="1454.8" y2="499.2"/>
<linearGradient id="SVGID_2_" gradientUnits="userSpaceOnUse" x1="626.6547" y1="128.9601" x2="1376.4895" y2="128.9601">
	<stop  offset="0" style="stop-color:#DE6262"/>
	<stop  offset="1" style="stop-color:#FFB88C"/>
</linearGradient>
<polyline class="st1" points="1369,248.8 1369,170.1 1215.5,16.6 634.2,22.5 634.2,149.9 "/>
<linearGradient id="SVGID_3_" gradientUnits="userSpaceOnUse" x1="626.6547" y1="744.4115" x2="1376.4895" y2="744.4115">
	<stop  offset="0" style="stop-color:#DE6262"/>
	<stop  offset="1" style="stop-color:#FFB88C"/>
</linearGradient>
<polyline class="st2" points="634.2,995 634.2,1061.4 1369,1061.4 1369,420 "/>
<linearGradient id="SVGID_4_" gradientUnits="userSpaceOnUse" x1="461.5128" y1="394.394" x2="936.647" y2="394.394">
	<stop  offset="0" style="stop-color:#DE6262"/>
	<stop  offset="1" style="stop-color:#FFB88C"/>
</linearGradient>
<rect x="461.5" y="156.8" class="st3" width="475.1" height="475.1"/>
<linearGradient id="SVGID_5_" gradientUnits="userSpaceOnUse" x1="1480.642" y1="658.5213" x2="1535.1135" y2="658.5213">
	<stop  offset="0" style="stop-color:#DE6262"/>
	<stop  offset="1" style="stop-color:#FFB88C"/>
</linearGradient>
<path class="st4" d="M1527.6,753c-3.1-2.4-7.6-6.5-11.2-12.8c-9.4-16.1-8.6-37.3-7.6-55.1c1.4-25.8,2-51.7,4.1-77.4
	c0.8-9.8-1.4-23.7-6.9-32.3c-4.8-7.4-9.8-8-17.8-11.3"/>
<linearGradient id="SVGID_6_" gradientUnits="userSpaceOnUse" x1="1426.5369" y1="780.256" x2="1487.0353" y2="780.256">
	<stop  offset="0" style="stop-color:#DE6262"/>
	<stop  offset="1" style="stop-color:#FFB88C"/>
</linearGradient>
<path class="st5" d="M1456.8,1061.4L1456.8,1061.4c0,0-30.2-65.3-30.2-81.9v-450c0-16.6,13.6-30.2,30.2-30.2h0
	c16.6,0,30.2,13.6,30.2,30.2v450C1487,996.1,1456.8,1061.4,1456.8,1061.4z"/>
<linearGradient id="SVGID_7_" gradientUnits="userSpaceOnUse" x1="1276.0286" y1="334.6333" x2="1507.6934" y2="334.6333">
	<stop  offset="0" style="stop-color:#DE6262"/>
	<stop  offset="1" style="stop-color:#FFB88C"/>
</linearGradient>
<path class="st6" d="M1495.7,413.6H1288c-6.6,0-12-5.4-12-12V267.7c0-6.6,5.4-12,12-12h207.7c6.6,0,12,5.4,12,12v133.9
	C1507.7,408.2,1502.3,413.6,1495.7,413.6z"/>
<line class="st7" x1="809.7" y1="156.8" x2="809.7" y2="639.6"/>
<line class="st7" x1="851.1" y1="156.8" x2="851.1" y2="639.6"/>
<linearGradient id="SVGID_8_" gradientUnits="userSpaceOnUse" x1="994.0721" y1="398.8206" x2="1203.8477" y2="398.8206">
	<stop  offset="0" style="stop-color:#DE6262"/>
	<stop  offset="1" style="stop-color:#FFB88C"/>
</linearGradient>
<line class="st8" x1="1001.6" y1="398.8" x2="1196.3" y2="398.8"/>
<linearGradient id="SVGID_9_" gradientUnits="userSpaceOnUse" x1="994.0721" y1="459.3191" x2="1203.8477" y2="459.3191">
	<stop  offset="0" style="stop-color:#DE6262"/>
	<stop  offset="1" style="stop-color:#FFB88C"/>
</linearGradient>
<line class="st9" x1="1001.6" y1="459.3" x2="1196.3" y2="459.3"/>
<linearGradient id="SVGID_10_" gradientUnits="userSpaceOnUse" x1="994.0721" y1="528.671" x2="1203.8477" y2="528.671">
	<stop  offset="0" style="stop-color:#DE6262"/>
	<stop  offset="1" style="stop-color:#FFB88C"/>
</linearGradient>
<line class="st10" x1="1001.6" y1="528.7" x2="1196.3" y2="528.7"/>
<g>
	<linearGradient id="SVGID_11_" gradientUnits="userSpaceOnUse" x1="393.6365" y1="813.4564" x2="1196.3477" y2="813.4564">
		<stop  offset="0" style="stop-color:#DE6262"/>
		<stop  offset="1" style="stop-color:#FFB88C"/>
	</linearGradient>
	<path class="st11" d="M1167.3,995H422.7c-16.1,0-29.1-13-29.1-29.1V642.7c0-5.9,4.8-10.7,10.7-10.7h781.3c5.9,0,10.7,4.8,10.7,10.7
		v323.2C1196.3,981.9,1183.3,995,1167.3,995z"/>
	<polyline class="st12" points="393.6,632 795,841.5 1196.3,632 	"/>
</g>
<linearGradient id="SVGID_12_" gradientUnits="userSpaceOnUse" x1="1200.9064" y1="170.6654" x2="1303.4672" y2="84.6067">
	<stop  offset="0" style="stop-color:#DE6262"/>
	<stop  offset="1" style="stop-color:#FFB88C"/>
</linearGradient>
<polyline class="st13" points="1215.5,16.6 1215.5,171.6 1369,170.1 "/>
<line class="st14" x1="422.4" y1="240.9" x2="496.2" y2="240.9"/>
<line class="st14" x1="1332.1" y1="317.7" x2="1448.7" y2="317.7"/>
<line class="st14" x1="1333.6" y1="360" x2="1365.5" y2="360"/>
<line class="st14" x1="424.6" y1="321.4" x2="498.4" y2="321.4"/>
<line class="st14" x1="420.2" y1="401.8" x2="494" y2="401.8"/>
<line class="st14" x1="420.2" y1="485.9" x2="494" y2="485.9"/>
<line class="st14" x1="420.2" y1="566.3" x2="494" y2="566.3"/>
<line class="st15" x1="1426.5" y1="564.1" x2="1487" y2="564.1"/>
<line class="st15" x1="1423.2" y1="983.3" x2="1489.3" y2="983.3"/>
</svg>
