<?xml version="1.0" encoding="utf-8"?>
<!-- Generator: Adobe Illustrator 22.1.0, SVG Export Plug-In . SVG Version: 6.00 Build 0)  -->
<svg version="1.1" id="Layer_1" xmlns="http://www.w3.org/2000/svg" xmlns:xlink="http://www.w3.org/1999/xlink" x="0px" y="0px"
	 viewBox="0 0 512 512" style="enable-background:new 0 0 512 512;" xml:space="preserve">
<style type="text/css">
	.st0{fill:#FFFFFF;}
</style>
<path class="st0" d="M259.6,36.6c0,2.5-2,4.6-4.6,4.6s-4.6-2.1-4.6-4.6c0-2.5,2-4.6,4.6-4.6S259.6,34.1,259.6,36.6z"/>
<path class="st0" d="M39,56.5v260.3c0,4.1,3.4,7.5,7.5,7.5h341.1c4.1,0,7.5-3.4,7.5-7.5c0-4.1-3.4-7.5-7.5-7.5h-76.3
	c3.6-26.1,12.8-46.9,18.3-57.5c4.2-8.1,2.9-18.2-3.2-25c-26.1-28.9-36-56.6-39.5-70.6c-2.1-8.3-9.5-14.1-18.1-14.1h-27.6
	c-8.5,0-16,5.8-18.1,14.1c-3.5,14-13.4,41.7-39.5,70.6c-6.1,6.8-7.4,16.8-3.2,25c5.5,10.6,14.6,31.4,18.3,57.5H54V64H456v245.3
	h-38.3c-4.1,0-7.5,3.4-7.5,7.5c0,4.1,3.4,7.5,7.5,7.5h45.8c4.1,0,7.5-3.4,7.5-7.5V56.5c0-4.1-3.4-7.5-7.5-7.5H46.5
	C42.4,49,39,52.4,39,56.5z M193.7,245c-1.4-2.6-0.9-5.8,1-8c28.3-31.3,39-61.6,42.9-76.9c0.4-1.6,1.9-2.8,3.5-2.8h6.3v65.2
	c-3.1,2.3-5.2,6-5.2,10.2c0,7,5.7,12.7,12.7,12.7c7,0,12.7-5.7,12.7-12.7c0-4.2-2-7.9-5.2-10.2v-65.2h6.3c1.7,0,3.1,1.1,3.5,2.8
	c3.9,15.3,14.6,45.7,42.9,76.9c2,2.2,2.4,5.4,1,8c-6.1,11.7-16.3,35.1-20.1,64.3h-82.4C210,280.1,199.8,256.7,193.7,245z"/>
<path class="st0" d="M232.8,356.9c0,12.2,10,22.2,22.2,22.2s22.2-10,22.2-22.2s-10-22.2-22.2-22.2S232.8,344.6,232.8,356.9z
	 M262.2,356.9c0,4-3.2,7.2-7.2,7.2s-7.2-3.2-7.2-7.2c0-4,3.2-7.2,7.2-7.2S262.2,352.9,262.2,356.9z"/>
<path class="st0" d="M361,171.9v20.9c0,8.6,7,15.7,15.7,15.7h20.9c8.6,0,15.7-7,15.7-15.7v-20.9c0-8.6-7-15.7-15.7-15.7h-15.9
	c-15.4-20.9-38.7-34.4-61.1-43h55.4c3.2,10.8,13.2,18.6,25,18.6c14.4,0,26.1-11.7,26.1-26.1c0-14.4-11.7-26.1-26.1-26.1
	c-11.8,0-21.8,7.9-25,18.6h-94.8v-3c0-8.6-7-15.7-15.7-15.7h-20.9c-8.6,0-15.7,7-15.7,15.7v3h-94.8c-3.2-10.8-13.2-18.6-25-18.6
	c-14.4,0-26.1,11.7-26.1,26.1c0,14.4,11.7,26.1,26.1,26.1c11.8,0,21.8-7.9,25-18.6h55.4c-22.5,8.6-45.7,22.1-61.1,43h-15.9
	c-8.6,0-15.7,7-15.7,15.7v20.9c0,8.6,7,15.7,15.7,15.7h20.9c8.6,0,15.7-7,15.7-15.7v-20.9c0-4.5-1.9-8.5-4.9-11.4
	c12.3-14.2,37-33.3,84.9-43.3c0.6,8.1,7.3,14.6,15.6,14.6h20.9c8.3,0,15.1-6.5,15.6-14.6c47.9,10,72.6,29.1,84.9,43.3
	C362.9,163.4,361,167.4,361,171.9z M134,192.8c0,0.4-0.3,0.7-0.7,0.7h-20.9c-0.4,0-0.7-0.3-0.7-0.7v-20.9c0-0.4,0.3-0.7,0.7-0.7
	h20.9c0.4,0,0.7,0.3,0.7,0.7V192.8z M401,94.6c6.1,0,11.1,5,11.1,11.1c0,6.1-5,11.1-11.1,11.1s-11.1-5-11.1-11.1
	C389.8,99.6,394.8,94.6,401,94.6z M109,116.9c-6.1,0-11.1-5-11.1-11.1c0-6.1,5-11.1,11.1-11.1s11.1,5,11.1,11.1
	C120.2,111.9,115.2,116.9,109,116.9z M266.1,116.2c0,0.4-0.3,0.7-0.7,0.7h-20.9c-0.4,0-0.7-0.3-0.7-0.7V95.3c0-0.4,0.3-0.7,0.7-0.7
	h20.9c0.4,0,0.7,0.3,0.7,0.7V116.2z M398.3,171.9v20.9c0,0.4-0.3,0.7-0.7,0.7h-20.9c-0.4,0-0.7-0.3-0.7-0.7v-20.9
	c0-0.4,0.3-0.7,0.7-0.7h20.9C398,171.2,398.3,171.5,398.3,171.9z"/>
<path class="st0" d="M466.4,9H155.6c-4.1,0-7.5,3.4-7.5,7.5s3.4,7.5,7.5,7.5h310.8c16.3,0,29.6,13.3,29.6,29.6v306.3
	c0,16.3-13.3,29.6-29.6,29.6H43.6c-16.3,0-29.6-13.3-29.6-29.6V53.6C14,37.3,27.3,24,43.6,24h82.1c4.1,0,7.5-3.4,7.5-7.5
	S129.8,9,125.6,9H43.6C19,9-1,29-1,53.6v306.3c0,24.6,20,44.6,44.6,44.6h152.4v36.7h-37.7c-17.5,0-31.7,14.2-31.7,31.7
	c0,17.5,14.2,31.7,31.7,31.7h193.6c17.5,0,31.7-14.2,31.7-31.7c0-17.5-14.2-31.7-31.7-31.7h-37.7v-36.7h152.4
	c24.6,0,44.6-20,44.6-44.6V53.6C511,29,491,9,466.4,9z M368.5,472.8c0,9.2-7.5,16.7-16.7,16.7H158.2c-9.2,0-16.7-7.5-16.7-16.7
	s7.5-16.7,16.7-16.7h193.6C361,456.2,368.5,463.6,368.5,472.8z M299.1,441.2h-88.2v-36.7h88.2V441.2z"/>
</svg>
