<?xml version="1.0" encoding="utf-8"?>
<!-- Generator: Adobe Illustrator 22.1.0, SVG Export Plug-In . SVG Version: 6.00 Build 0)  -->
<svg version="1.1" id="Capa_1" xmlns="http://www.w3.org/2000/svg" xmlns:xlink="http://www.w3.org/1999/xlink" x="0px" y="0px"
	 viewBox="0 0 488 488" style="enable-background:new 0 0 488 488;" xml:space="preserve">
<style type="text/css">
	.st0{fill:#FFFFFF;}
</style>
<g>
	<g>
		<path class="st0" d="M414.6,211.8c-3.4-9.6-12.5-15.9-22.6-15.9c-10.1,0-19.2,6.4-22.5,16H320v-32h32c4.4,0,8-3.6,8-8c0,0,0,0,0,0
			v-33.5c12.5-4.4,19-18.1,14.6-30.6c-4.4-12.5-18.1-19-30.6-14.6s-19,18.1-14.6,30.6c2.4,6.8,7.8,12.2,14.6,14.6v25.5h-24v-16
			c0-4.4-3.6-8-8-8c0,0,0,0,0,0h-16V98.4c12.5-4.4,19-18.1,14.6-30.6c-4.4-12.5-18.1-19-30.6-14.6c-12.5,4.4-19,18.1-14.6,30.6
			c2.4,6.8,7.8,12.2,14.6,14.6v41.5h-32V12.1c0-4.4-3.6-8-8-8c0,0,0,0,0,0c-98.7,0-176,71.5-176,162.7c0,43.3,17.2,100.7,44.9,149.7
			c5,8.8,11.5,18,18.3,27.8c14.5,20.7,30.7,44,32.4,64.2c-6.1,4.3-9.7,11.5-9.6,19c0,5.4,1.9,10.6,5.3,14.9
			c-4.7,4.7-7.4,11.1-7.3,17.7c0,13.2,10.8,24,24,24h136c13.3-0.1,24.1-11,24-24.3c0-0.1,0-0.2,0-0.3c0-6.5-2.7-12.7-7.4-17.2
			c3.4-4.4,5.3-9.8,5.3-15.3c0-12.7-10.3-22.9-23-22.9c-0.3,0-0.7,0-1,0h-58V251.9h16v24c0,4.4,3.6,8,8,8c0,0,0,0,0,0h24v9.5
			c-12.5,4.4-19,18.1-14.6,30.6s18.1,19,30.6,14.6c12.5-4.4,19-18.1,14.6-30.6c-2.4-6.8-7.8-12.2-14.6-14.6v-17.5c0-4.4-3.6-8-8-8
			c0,0,0,0,0,0h-24v-16h32c4.4,0,8-3.6,8-8c0,0,0,0,0,0v-16h49.5c4.4,12.5,18.1,19,30.6,14.5C412.5,237.9,419.1,224.2,414.6,211.8z
			 M352,107.9c4.4,0,8,3.6,8,8s-3.6,8-8,8s-8-3.6-8-8C344,111.4,347.6,107.9,352,107.9z M140.3,335.2c-6.6-9.5-12.9-18.4-17.5-26.5
			c-26-46-42.8-101.7-42.8-141.8C80,87,146.1,24,232,20.3v55.9c-2.1,0.2-4.3,0.4-6.6,0.6c-3.4,0.4-6.2,2.9-6.9,6.3l-2.4,11.6
			c-2,0.5-4,1-6,1.6l-8-8.9c-2.3-2.6-5.9-3.4-9.1-2c-9,3.9-17.4,8.8-25.2,14.7c-2.7,2.1-3.9,5.6-2.8,8.9l3.7,11.2
			c-1.5,1.4-3,2.9-4.4,4.4l-11.2-3.7c-3.3-1.1-6.8,0.1-8.9,2.8c-5.9,7.8-10.8,16.2-14.7,25.2c-1.3,3.2-0.5,6.8,2,9.1l8.9,8
			c-0.6,2-1.1,4-1.6,5.9l-12.4,2.5c-3.7,0.7-6.4,4-6.4,7.8v27.3c0,3.8,2.7,7.1,6.4,7.8l12.4,2.5c0.5,2,1,4,1.6,5.9l-8.9,8
			c-2.6,2.3-3.4,5.9-2,9.1c3.9,9,8.8,17.4,14.7,25.2c2.1,2.7,5.6,3.8,8.9,2.8l11.2-3.7c1.4,1.5,2.9,3,4.4,4.4l-3.7,11.2
			c-1.1,3.3,0.1,6.8,2.8,8.9c7.8,5.9,16.2,10.8,25.2,14.7c3.2,1.3,6.8,0.5,9.1-2l8-8.9c2,0.6,4,1.1,6,1.6l2.4,11.6
			c0.7,3.4,3.5,5.9,6.9,6.3c2.3,0.3,4.5,0.5,6.6,0.6v88.6h-56.7C172,380.6,155.3,356.6,140.3,335.2z M168,195.9
			c0.1,36.6,27.6,67.4,64,71.5v27.5l-1.3-6.3c-0.7-3.2-3.2-5.7-6.4-6.2c-4.7-0.9-9.4-2.1-13.9-3.8c-0.9-0.3-1.8-0.5-2.7-0.5
			c-2.3,0-4.4,1-6,2.7l-7.5,8.4c-4.2-2.1-8.2-4.4-12-7.1l3.5-10.6c1-3.1,0.1-6.5-2.4-8.6c-3.7-3.1-7.1-6.5-10.2-10.2
			c-2.1-2.5-5.5-3.4-8.6-2.4l-10.6,3.5c-2.6-3.9-5-7.9-7.1-12l8.4-7.5c2.4-2.2,3.3-5.6,2.2-8.7c-1.6-4.5-2.9-9.2-3.8-13.9
			c-0.6-3.2-3.1-5.8-6.3-6.4l-11.2-2.2v-14.2l11.2-2.2c3.2-0.6,5.7-3.2,6.3-6.4c0.9-4.7,2.1-9.4,3.8-13.9c1.1-3.1,0.2-6.5-2.2-8.7
			l-8.4-7.5c2.1-4.2,4.4-8.2,7.1-12l10.6,3.5c3.1,1,6.5,0,8.6-2.4c3.1-3.7,6.6-7.1,10.2-10.3c2.5-2.1,3.4-5.5,2.4-8.6l-3.5-10.6
			c3.9-2.6,7.9-5,12-7.1l7.5,8.4c2.2,2.4,5.6,3.3,8.7,2.2c4.5-1.6,9.2-2.9,13.9-3.8c3.2-0.6,5.7-3,6.4-6.2l1.3-6.3v27.5
			C195.6,128.4,168.1,159.2,168,195.9z M232,140.5v110.7c-30.6-4.4-51.8-32.7-47.4-63.3C188.1,163.3,207.4,144,232,140.5z
			 M316,460.1c0,4.4-3.6,8-8,8H172c-4.5-0.1-8.1-3.8-8-8.3c0-0.1,0-0.2,0-0.3c0-4.4,3.6-8,8-8h136c4.5,0.1,8.1,3.8,8,8.3
			C316,460,316,460,316,460.1z M306,420.1c4-0.4,7.6,2.6,8,6.6c0,0.3,0,0.5,0,0.8c0,4.4-3.6,8-8,8H174c-4.5-0.1-8.1-3.8-8-8.3
			c0-0.1,0-0.2,0-0.3c0.2-4,3.5-7.1,7.5-6.9c0.2,0,0.3,0,0.5,0L306,420.1L306,420.1z M304,307.9c4.4,0,8,3.6,8,8s-3.6,8-8,8
			s-8-3.6-8-8C296,311.4,299.6,307.9,304,307.9z M288,67.9c4.4,0,8,3.6,8,8s-3.6,8-8,8s-8-3.6-8-8C280,71.4,283.6,67.9,288,67.9z
			 M304,235.9h-56v-80h56V235.9z M392,227.9c-4.4,0-8-3.6-8-8s3.6-8,8-8s8,3.6,8,8C400,224.3,396.4,227.9,392,227.9z"/>
	</g>
</g>
<g>
	<g>
		<path class="st0" d="M317.2,369.8c-2.8,5-5.3,10.3-7.5,15.6l14.9,5.9c1.9-4.7,4.1-9.3,6.6-13.8L317.2,369.8z"/>
	</g>
</g>
<g>
	<g>
		<path class="st0" d="M335.1,341.6c-3.1,4.5-6.3,9.1-9.3,13.8l13.4,8.7c2.9-4.5,5.9-8.9,9-13.3L335.1,341.6z"/>
	</g>
</g>
<g>
	<g>
		<path class="st0" d="M353.3,315c-2.7,4.3-5.7,8.7-8.9,13.3l13.1,9.1c3.3-4.8,6.4-9.4,9.3-13.9L353.3,315z"/>
	</g>
</g>
<g>
	<g>
		<path class="st0" d="M368.4,287.1c-2.3,4.8-4.7,9.5-7.2,14.2l14.1,7.5c2.6-4.9,5.1-9.9,7.5-14.9L368.4,287.1z"/>
	</g>
</g>
<g>
	<g>
		<path class="st0" d="M380.9,257.8c-1.9,4.9-3.8,9.9-5.9,14.8l14.7,6.3c2.2-5.1,4.2-10.3,6.2-15.5L380.9,257.8z"/>
	</g>
</g>
<g>
	<g>
		<path class="st0" d="M416,165.2l-16,0.1l0,1.5c0,4.5-0.2,9.2-0.6,14.1l15.9,1.3c0.4-5.3,0.7-10.5,0.7-15.4L416,165.2z"/>
	</g>
</g>
<g>
	<g>
		<path class="st0" d="M411.9,131.2l-15.6,3.6c1.2,5,2.1,10.1,2.7,15.2l15.9-1.9C414.2,142.4,413.2,136.7,411.9,131.2z"/>
	</g>
</g>
<g>
	<g>
		<path class="st0" d="M400.4,98.8l-14.4,7c2.2,4.6,4.2,9.4,6,14.2l15.1-5.4C405.2,109.3,402.9,104,400.4,98.8z"/>
	</g>
</g>
<g>
	<g>
		<path class="st0" d="M382.1,69.9l-12.5,10c3.2,4,6.2,8.2,8.9,12.6l13.5-8.5C389,79,385.7,74.3,382.1,69.9z"/>
	</g>
</g>
<g>
	<g>
		<path class="st0" d="M358.1,45.4l-10.2,12.3c4,3.3,7.8,6.8,11.4,10.5L370.8,57C366.7,52.9,362.5,49.1,358.1,45.4z"/>
	</g>
</g>
<g>
	<g>
		<path class="st0" d="M329.8,26.4l-7.6,14.1c4.6,2.5,9,5.2,13.3,8l8.9-13.3C339.8,32.1,334.9,29.1,329.8,26.4z"/>
	</g>
</g>
<g>
	<g>
		<path class="st0" d="M298.5,13.1l-4.8,15.3c5,1.6,9.9,3.4,14.6,5.4l6.3-14.7C309.3,16.8,303.9,14.8,298.5,13.1z"/>
	</g>
</g>
<g>
	<g>
		<path class="st0" d="M265.3,5.8l-2,15.9c5.2,0.7,10.3,1.6,15.3,2.7L282,8.7C276.6,7.5,270.9,6.5,265.3,5.8z"/>
	</g>
</g>
<g>
	<g>
		<rect x="16" y="435.9" class="st0" width="16" height="16"/>
	</g>
</g>
<g>
	<g>
		<rect x="16" y="467.9" class="st0" width="16" height="16"/>
	</g>
</g>
<g>
	<g>
		<rect x="32" y="451.9" class="st0" width="16" height="16"/>
	</g>
</g>
<g>
	<g>
		<rect y="451.9" class="st0" width="16" height="16"/>
	</g>
</g>
<g>
	<g>
		<rect x="456" y="3.9" class="st0" width="16" height="16"/>
	</g>
</g>
<g>
	<g>
		<rect x="456" y="35.9" class="st0" width="16" height="16"/>
	</g>
</g>
<g>
	<g>
		<rect x="472" y="19.9" class="st0" width="16" height="16"/>
	</g>
</g>
<g>
	<g>
		<rect x="440" y="19.9" class="st0" width="16" height="16"/>
	</g>
</g>
</svg>
