<svg id="Capa_1" data-name="Capa 1" xmlns="http://www.w3.org/2000/svg" xmlns:xlink="http://www.w3.org/1999/xlink" viewBox="0 0 512 509.88"><defs><style>.cls-1{fill:url(#New_Gradient_Swatch);}.cls-2{fill:url(#New_Gradient_Swatch-2);}.cls-3{fill:url(#New_Gradient_Swatch-3);}</style><linearGradient id="New_Gradient_Swatch" x1="88.35" y1="212.89" x2="512" y2="212.89" gradientUnits="userSpaceOnUse"><stop offset="0" stop-color="#de6262"/><stop offset="1" stop-color="#ffb88c"/></linearGradient><linearGradient id="New_Gradient_Swatch-2" x1="0" y1="310.42" x2="300.22" y2="310.42" xlink:href="#New_Gradient_Swatch"/><linearGradient id="New_Gradient_Swatch-3" x1="230.5" y1="377.64" x2="394.79" y2="377.64" xlink:href="#New_Gradient_Swatch"/></defs><title>mobile</title><path class="cls-1" d="M476.41,1.06H123.93A35.62,35.62,0,0,0,88.35,36.65V75.23H477.1v313.9a.67.67,0,0,1-.69.67h-59.8v34.92h59.8A35.64,35.64,0,0,0,512,389.13V36.65A35.64,35.64,0,0,0,476.41,1.06ZM343.94,57.45A19.48,19.48,0,0,1,324.45,38a19,19,0,0,1,4.65-12.18,18.76,18.76,0,0,1,29.67,0A19.11,19.11,0,0,1,363.4,38,19.45,19.45,0,0,1,343.94,57.45Zm52.36,0A19.47,19.47,0,0,1,376.81,38a19.08,19.08,0,0,1,4.66-12.18,18.73,18.73,0,0,1,29.65,0A19.12,19.12,0,0,1,415.76,38,19.47,19.47,0,0,1,396.3,57.45Zm52.34,0A19.45,19.45,0,0,1,429.18,38a19.05,19.05,0,0,1,4.63-12.18,18.76,18.76,0,0,1,29.67,0A19.11,19.11,0,0,1,468.11,38,19.47,19.47,0,0,1,448.64,57.45Z" transform="translate(0 -1.06)"/><path class="cls-2" d="M208.68,486V444.53H34.9V158.78A13.78,13.78,0,0,1,48.64,145H251.58a13.78,13.78,0,0,1,13.76,13.74v63.76h34.88V158.78a48.68,48.68,0,0,0-48.64-48.64H48.64A48.67,48.67,0,0,0,0,158.78V462.06A48.67,48.67,0,0,0,48.64,510.7H215.89A44.83,44.83,0,0,1,208.68,486Zm-58.54,11.8a20.16,20.16,0,0,1-19.5-19.49,19.48,19.48,0,1,1,39,0,20.12,20.12,0,0,1-19.46,19.49Z" transform="translate(0 -1.06)"/><path class="cls-3" d="M369.86,244.35H255.43a25,25,0,0,0-24.93,24.93V486a25,25,0,0,0,24.93,24.92H369.86A25,25,0,0,0,394.79,486V269.28A25,25,0,0,0,369.86,244.35ZM256.69,270.53H368.61v192H256.69Zm43.48,214.84a12.48,12.48,0,1,1,12.45,12.48A12.44,12.44,0,0,1,300.17,485.37Z" transform="translate(0 -1.06)"/></svg>