<?xml version="1.0" encoding="utf-8"?>
<!-- Generator: Adobe Illustrator 22.1.0, SVG Export Plug-In . SVG Version: 6.00 Build 0)  -->
<svg version="1.1" id="Layer_1" xmlns="http://www.w3.org/2000/svg" xmlns:xlink="http://www.w3.org/1999/xlink" x="0px" y="0px"
	 viewBox="0 0 512 512" style="enable-background:new 0 0 512 512;" xml:space="preserve">
<style type="text/css">
	.st0{fill:#FFFFFF;}
</style>
<g>
	<path class="st0" d="M448,178.3c0,5-4.1,9.1-9.1,9.1c-5,0-9.1-4.1-9.1-9.1c0-5,4.1-9.1,9.1-9.1C443.9,169.1,448,173.2,448,178.3z"
		/>
	<path class="st0" d="M256,150.9c-65.6,0-118.9,53.2-118.9,118.9S190.4,388.6,256,388.6s118.9-53.2,118.9-118.9
		C374.8,204.1,321.6,150.9,256,150.9z M256,370.3c-55.5,0-100.6-45-100.6-100.6s45-100.6,100.6-100.6s100.6,45,100.6,100.6
		C356.5,325.2,311.5,370.2,256,370.3z"/>
	<path class="st0" d="M338.3,269.7c0,45.4-36.8,82.3-82.3,82.3s-82.3-36.8-82.3-82.3s36.8-82.3,82.3-82.3S338.3,224.3,338.3,269.7z"
		/>
	<path class="st0" d="M45.7,96h54.9v18.3H45.7V96z"/>
	<path class="st0" d="M512,160c0-15.1-12.3-27.4-27.4-27.4H384c-3.3,0-6.3-1.7-7.9-4.6l-26-45.6c-4.9-8.5-14-13.8-23.8-13.9H185.8
		c-9.8,0-18.9,5.3-23.8,13.8l-26,45.6c-1.6,2.8-4.7,4.6-7.9,4.6H27.4C12.3,132.6,0,144.9,0,160v256c0,15.1,12.3,27.4,27.4,27.4
		h457.1c15.1,0,27.4-12.3,27.4-27.4V160z M82.3,388.6c0,5-4.1,9.1-9.1,9.1s-9.1-4.1-9.1-9.1V169.1c0-5,4.1-9.1,9.1-9.1
		s9.1,4.1,9.1,9.1V388.6z M256,406.9c-75.7,0-137.1-61.4-137.1-137.1S180.3,132.6,256,132.6S393.1,194,393.1,269.7
		C393.1,345.4,331.7,406.8,256,406.9z M438.9,205.7c-15.1,0-27.4-12.3-27.4-27.4s12.3-27.4,27.4-27.4c15.1,0,27.4,12.3,27.4,27.4
		S454,205.7,438.9,205.7z"/>
	<path class="st0" d="M429.7,105.1h36.6v9.1h-36.6V105.1z"/>
</g>
</svg>
