<?xml version="1.0"?>
<svg xmlns="http://www.w3.org/2000/svg" height="512px" viewBox="-24 0 480 480" width="512px"><path d="m336 224.398438c-10.160156-17.503907-27.917969-29.253907-48-31.765626v-4.800781c28.742188-10.175781 47.964844-37.34375 48-67.832031v-18.398438c23.761719-6.996093 40.058594-28.832031 40-53.601562v-40c0-4.417969-3.582031-8-8-8s-8 3.582031-8 8v40c.039062 15.910156-9.398438 30.320312-24 36.640625v-76.640625c0-4.417969-3.582031-8-8-8h-136c-4.417969 0-8 3.582031-8 8s3.582031 8 8 8h128v104c-.039062 30.910156-25.089844 55.960938-56 56h-96c-30.910156-.039062-55.960938-25.089844-56-56v-104h23.753906c4.417969 0 8-3.582031 8-8s-3.582031-8-8-8h-31.753906c-4.417969 0-8 3.582031-8 8v76.640625c-14.601562-6.320313-24.039062-20.730469-24-36.640625v-40c0-4.417969-3.582031-8-8-8s-8 3.582031-8 8v40c-.058594 24.769531 16.238281 46.605469 40 53.601562v18.398438c.050781 30.476562 19.269531 57.628906 48 67.800781v4.800781c-20.082031 2.511719-37.839844 14.261719-48 31.765626-54.132812 4.210937-95.9335938 49.335937-96 103.632812v144c0 4.417969 3.582031 8 8 8s8-3.582031 8-8v-64h56v64c0 4.417969 3.582031 8 8 8s8-3.582031 8-8v-72c0-4.417969-3.582031-8-8-8h-64v-64c.070312-42.664062 30.710938-79.144531 72.71875-86.585938l-20.671875 57.882813c-7.679687 20.113281 2.359375 42.652344 22.449219 50.398437 4.335937 1.539063 8.902344 2.320313 13.503906 2.304688v72c0 13.253906 10.746094 24 24 24h176c13.253906 0 24-10.746094 24-24v-72c4.59375.003906 9.15625-.785156 13.480469-2.335938 20.105469-7.730468 30.15625-30.277343 22.472656-50.398437l-20.671875-57.851563c42.007812 7.441407 72.648438 43.921876 72.71875 86.585938v64h-64c-4.417969 0-8 3.582031-8 8v72c0 4.417969 3.582031 8 8 8s8-3.582031 8-8v-64h56v64c0 4.417969 3.582031 8 8 8s8-3.582031 8-8v-144c-.082031-54.285156-41.878906-99.390625-96-103.601562zm-20.097656-.398438h-27.902344v-15.304688c10.75 1.839844 20.574219 7.226563 27.902344 15.304688zm-171.902344-15.304688v15.304688h-27.910156c7.328125-8.078125 17.15625-13.464844 27.910156-15.304688zm168 215.304688c0 4.417969-3.582031 8-8 8h-176c-4.417969 0-8-3.582031-8-8v-96c0-4.417969 3.582031-8 8-8h176c4.417969 0 8 3.582031 8 8zm-144-120h-16v-8c0-4.417969 3.582031-8 8-8s8 3.582031 8 8zm104 0h-32v-16h32zm64.078125 30.601562c-2.589844.929688-5.324219 1.402344-8.078125 1.398438v-8c0-13.253906-10.746094-24-24-24h-16v-16c0-8.835938-7.164062-16-16-16h-32c-8.835938 0-16 7.164062-16 16v16h-40v-8c0-13.253906-10.746094-24-24-24s-24 10.746094-24 24v8h-8c-13.253906 0-24 10.746094-24 24v8c-2.757812.003906-5.5-.46875-8.097656-1.398438-11.652344-4.875-17.324219-18.128906-12.796875-29.921874l22.964843-64.320313c0-.128906.113282-.230469.160157-.359375h69.769531c4.417969 0 8-3.582031 8-8s-3.582031-8-8-8h-16v-32h112v32h-16c-4.417969 0-8 3.582031-8 8s3.582031 8 8 8h69.761719c.046875.128906.117187.230469.160156.359375l22.964844 64.328125c4.527343 11.792969-1.148438 25.050781-12.808594 29.914062zm0 0" fill="#FFFFFF"/><path d="m160 40c-13.253906 0-24 10.746094-24 24s10.746094 24 24 24 24-10.746094 24-24-10.746094-24-24-24zm0 32c-4.417969 0-8-3.582031-8-8s3.582031-8 8-8 8 3.582031 8 8-3.582031 8-8 8zm0 0" fill="#FFFFFF"/><path d="m272 88c13.253906 0 24-10.746094 24-24 0-4.417969-3.582031-8-8-8s-8 3.582031-8 8-3.582031 8-8 8-8-3.582031-8-8-3.582031-8-8-8-8 3.582031-8 8c0 13.253906 10.746094 24 24 24zm0 0" fill="#FFFFFF"/><path d="m240 112c0 13.253906-10.746094 24-24 24s-24-10.746094-24-24c0-4.417969-3.582031-8-8-8s-8 3.582031-8 8c0 22.089844 17.910156 40 40 40s40-17.910156 40-40c0-4.417969-3.582031-8-8-8s-8 3.582031-8 8zm0 0" fill="#FFFFFF"/><path d="m216 336c-22.089844 0-40 17.910156-40 40s17.910156 40 40 40 40-17.910156 40-40c-.027344-22.082031-17.917969-39.972656-40-40zm0 64c-13.253906 0-24-10.746094-24-24s10.746094-24 24-24 24 10.746094 24 24-10.746094 24-24 24zm0 0" fill="#FFFFFF"/><path d="m224 376c0 4.417969-3.582031 8-8 8s-8-3.582031-8-8 3.582031-8 8-8 8 3.582031 8 8zm0 0" fill="#FFFFFF"/><path d="m288 336h-16c-4.417969 0-8 3.582031-8 8s3.582031 8 8 8h16c4.417969 0 8-3.582031 8-8s-3.582031-8-8-8zm0 0" fill="#FFFFFF"/></svg>
