<?xml version="1.0" encoding="utf-8"?>
<!-- Generator: Adobe Illustrator 22.1.0, SVG Export Plug-In . SVG Version: 6.00 Build 0)  -->
<svg version="1.1" id="Layer_1" xmlns="http://www.w3.org/2000/svg" xmlns:xlink="http://www.w3.org/1999/xlink" x="0px" y="0px"
	 viewBox="0 0 512 512" style="enable-background:new 0 0 512 512;" xml:space="preserve">
<style type="text/css">
	.st0{fill:#FFFFFF;}
</style>
<g>
	<path class="st0" d="M470.7,132.1h-24.8V0H66.1v132.1H41.3C18.5,132.1,0,150.7,0,173.4v247.7c0,22.8,18.5,41.3,41.3,41.3h107.4v33
		h-33V512h280.8v-16.5h-33v-33h107.4c22.8,0,41.3-18.5,41.3-41.3V173.4C512,150.7,493.5,132.1,470.7,132.1z M326.6,259.8l9.6-19.1
		l-31.8-31.8l-19.1,9.6l-6.8-20.3h-44.9l-6.8,20.3l-19.1-9.6l-31.8,31.8l9.6,19.1l-20.3,6.8v14.2H82.6V82.6h346.8v198.2h-82.6v-14.2
		L326.6,259.8z M316,334.1l-14.9,14.9l-17.9-8.9l-3.6,1.6c-1,0.5-2.1,0.9-3.1,1.3l-3.7,1.4l-6.3,19h-21.1l-6.3-19l-3.7-1.4
		c-1.1-0.4-2.1-0.8-3.1-1.3l-3.6-1.6l-17.9,8.9L196,334.1l8.9-17.9l-1.6-3.6c-0.5-1-0.9-2.1-1.3-3.1l-1.4-3.7l-19-6.3v-21.1l19-6.3
		l1.4-3.7c0.4-1.1,0.8-2.1,1.3-3.1l1.6-3.6l-8.9-17.9l14.9-14.9l17.9,8.9l3.6-1.6c1-0.5,2.1-0.9,3.1-1.3l3.7-1.4l6.3-19h21.1l6.3,19
		l3.7,1.4c1.1,0.4,2.1,0.8,3.1,1.3l3.6,1.6l17.9-8.9l14.9,14.9l-8.9,17.9l1.6,3.6c0.5,1,0.9,2.1,1.3,3.1l1.4,3.7l19,6.3v21.1
		l-19,6.3l-1.4,3.7c-0.4,1.1-0.8,2.1-1.3,3.1l-1.6,3.6L316,334.1z M429.4,16.5v49.5H82.6V16.5H429.4z M41.3,148.6h24.8v148.6h99.1
		v14.2l20.3,6.8l-9.6,19.1l31.8,31.8l19.1-9.6l6.8,20.3h44.9l6.8-20.3l19.1,9.6l31.8-31.8l-9.6-19.1l20.3-6.8v-14.2h99.1V148.6h24.8
		c13.7,0,24.8,11.1,24.8,24.8v223h-479v-223C16.5,159.8,27.6,148.6,41.3,148.6z M346.8,495.5H165.2v-33h181.7V495.5z M470.7,445.9
		H41.3c-13.7,0-24.8-11.1-24.8-24.8v-8.3h479v8.3C495.5,434.8,484.4,445.9,470.7,445.9z"/>
	<path class="st0" d="M99.1,33h16.5v16.5H99.1V33z"/>
	<path class="st0" d="M132.1,33h16.5v16.5h-16.5V33z"/>
	<path class="st0" d="M165.2,33h16.5v16.5h-16.5V33z"/>
	<path class="st0" d="M256,247.7c-22.8,0-41.3,18.5-41.3,41.3c0,22.8,18.5,41.3,41.3,41.3s41.3-18.5,41.3-41.3
		C297.3,266.3,278.8,247.7,256,247.7z M256,313.8c-13.7,0-24.8-11.1-24.8-24.8s11.1-24.8,24.8-24.8c13.7,0,24.8,11.1,24.8,24.8
		S269.7,313.8,256,313.8z"/>
	<path class="st0" d="M99.1,99.1h165.2v16.5H99.1V99.1z"/>
	<path class="st0" d="M99.1,132.1h165.2v16.5H99.1V132.1z"/>
	<path class="st0" d="M99.1,165.2h165.2v16.5H99.1V165.2z"/>
</g>
</svg>
