<?xml version="1.0" encoding="utf-8"?>
<!-- Generator: Adobe Illustrator 22.1.0, SVG Export Plug-In . SVG Version: 6.00 Build 0)  -->
<svg version="1.1" id="Capa_1" xmlns="http://www.w3.org/2000/svg" xmlns:xlink="http://www.w3.org/1999/xlink" x="0px" y="0px"
	 viewBox="0 0 512 512" style="enable-background:new 0 0 512 512;" xml:space="preserve">
<style type="text/css">
	.st0{fill:url(#SVGID_1_);}
	.st1{fill:url(#SVGID_2_);}
	.st2{fill:url(#SVGID_3_);}
</style>
<g>
	<g>
		<linearGradient id="SVGID_1_" gradientUnits="userSpaceOnUse" x1="88.3459" y1="212.8894" x2="512.0001" y2="212.8894">
			<stop  offset="0" style="stop-color:#DE6262"/>
			<stop  offset="1" style="stop-color:#FFB88C"/>
		</linearGradient>
		<path class="st0" d="M476.4,1.1H123.9c-19.6,0-35.6,16-35.6,35.6v38.6h17.5h145.8h225.5v313.9c0,0.4-0.3,0.7-0.7,0.7h-59.8v34.9
			h59.8c19.6,0,35.6-16,35.6-35.6V36.7C512,17,496,1.1,476.4,1.1z M343.9,57.4c-10.8,0-19.5-8.7-19.5-19.5c0-4.7,1.9-8.8,4.7-12.2
			c3.6-4.4,8.8-7.3,14.8-7.3c6,0,11.2,2.9,14.8,7.3c2.8,3.3,4.6,7.5,4.6,12.2C363.4,48.7,354.7,57.4,343.9,57.4z M396.3,57.4
			c-10.8,0-19.5-8.7-19.5-19.5c0-4.7,1.9-8.8,4.7-12.2c3.6-4.4,8.7-7.3,14.8-7.3c6.1,0,11.2,2.9,14.8,7.3c2.8,3.3,4.6,7.5,4.6,12.2
			C415.8,48.7,407,57.4,396.3,57.4z M448.6,57.4c-10.7,0-19.5-8.7-19.5-19.5c0-4.7,1.9-8.8,4.6-12.2c3.6-4.4,8.8-7.3,14.8-7.3
			s11.3,2.9,14.8,7.3c2.8,3.3,4.6,7.5,4.6,12.2C468.1,48.7,459.4,57.4,448.6,57.4z"/>
	</g>
	<g>
		<linearGradient id="SVGID_2_" gradientUnits="userSpaceOnUse" x1="1.525879e-05" y1="310.4211" x2="300.2225" y2="310.4211">
			<stop  offset="0" style="stop-color:#DE6262"/>
			<stop  offset="1" style="stop-color:#FFB88C"/>
		</linearGradient>
		<path class="st1" d="M208.7,486v-41.5H34.9V158.8c0-7.6,6.2-13.7,13.7-13.7h202.9c7.6,0,13.8,6.2,13.8,13.7v63.8h34.9v-63.8
			c0-26.8-21.8-48.6-48.6-48.6H48.6C21.8,110.1,0,131.9,0,158.8v303.3c0,26.8,21.8,48.6,48.6,48.6h167.3
			C212.2,504.8,208.7,497,208.7,486z M150.1,497.8c-6,0-11.1-2.8-14.7-7c-2.9-3.4-4.8-7.6-4.8-12.5c0-10.7,8.7-19.5,19.5-19.5
			c10.7,0,19.5,8.7,19.5,19.5c0,4.8-1.9,9.1-4.8,12.5C161.2,495,156.1,497.8,150.1,497.8z"/>
	</g>
	<g>
		<linearGradient id="SVGID_3_" gradientUnits="userSpaceOnUse" x1="230.5001" y1="377.6418" x2="394.7927" y2="377.6418">
			<stop  offset="0" style="stop-color:#DE6262"/>
			<stop  offset="1" style="stop-color:#FFB88C"/>
		</linearGradient>
		<path class="st2" d="M369.9,244.3H255.4c-13.7,0-24.9,11.2-24.9,24.9V486c0,13.7,11.2,24.9,24.9,24.9h114.4
			c13.7,0,24.9-11.2,24.9-24.9V269.3C394.8,255.5,383.6,244.3,369.9,244.3z M256.7,270.5h111.9v191.9H256.7V270.5z M300.2,485.4
			c0-6.9,5.6-12.4,12.4-12.4c6.9,0,12.5,5.6,12.5,12.4c0,6.9-5.6,12.5-12.5,12.5C305.7,497.9,300.2,492.3,300.2,485.4z"/>
	</g>
</g>
</svg>
